<?xml version="1.0" encoding="utf-8"?>
<svg viewBox="180.281 125.875 231.453 153.256" width="231.453" height="153.256" xmlns="http://www.w3.org/2000/svg">
  <path d="M 182.374 135.382 L 182.374 128.382 L 221.584 128.382 L 221.584 135.382 L 205.484 135.382 L 205.484 177.392 L 198.474 177.392 L 198.474 135.382 L 182.374 135.382 ZM 261.502 147.722 L 261.502 177.392 L 254.772 177.392 L 254.772 147.722 L 236.002 147.722 L 236.002 177.392 L 229.312 177.392 L 229.312 126.972 L 236.002 126.972 L 236.002 147.412 C 236.049 146.525 236.255 145.689 236.622 144.902 C 236.989 144.115 237.472 143.432 238.072 142.852 C 238.679 142.272 239.379 141.815 240.172 141.482 C 240.972 141.155 241.829 140.992 242.742 140.992 L 254.772 140.992 C 255.705 140.992 256.582 141.169 257.402 141.522 C 258.222 141.875 258.935 142.352 259.542 142.952 C 260.142 143.559 260.619 144.272 260.972 145.092 C 261.325 145.912 261.502 146.789 261.502 147.722 ZM 273.06 140.992 L 279.79 140.992 L 279.79 177.392 L 273.06 177.392 L 273.06 140.992 Z M 272.72 133.982 L 272.72 126.972 L 280.13 126.972 L 280.13 133.982 L 272.72 133.982 ZM 323.538 147.722 L 323.538 177.392 L 316.808 177.392 L 316.808 147.722 L 298.038 147.722 L 298.038 177.392 L 291.348 177.392 L 291.348 140.992 L 298.038 140.992 L 298.038 147.412 C 298.085 146.525 298.291 145.689 298.658 144.902 C 299.025 144.115 299.508 143.432 300.108 142.852 C 300.715 142.272 301.415 141.815 302.208 141.482 C 303.008 141.155 303.865 140.992 304.778 140.992 L 316.808 140.992 C 317.741 140.992 318.618 141.169 319.438 141.522 C 320.258 141.875 320.971 142.352 321.578 142.952 C 322.178 143.559 322.655 144.272 323.008 145.092 C 323.361 145.912 323.538 146.789 323.538 147.722 ZM 334.756 169.262 L 334.756 147.722 C 334.756 146.789 334.933 145.912 335.286 145.092 C 335.639 144.272 336.116 143.559 336.716 142.952 C 337.323 142.352 338.036 141.875 338.856 141.522 C 339.676 141.169 340.539 140.992 341.446 140.992 L 353.516 140.992 C 354.403 140.992 355.246 141.155 356.046 141.482 C 356.846 141.815 357.546 142.272 358.146 142.852 C 358.753 143.432 359.243 144.115 359.616 144.902 C 359.996 145.689 360.196 146.525 360.216 147.412 L 360.216 140.992 L 366.946 140.992 L 366.946 185.352 C 366.946 186.292 366.769 187.172 366.416 187.992 C 366.063 188.812 365.586 189.522 364.986 190.122 C 364.379 190.729 363.666 191.209 362.846 191.562 C 362.026 191.915 361.149 192.092 360.216 192.092 L 338.956 192.092 L 338.956 185.352 L 360.216 185.352 L 360.216 175.992 L 341.446 175.992 C 340.539 175.992 339.676 175.815 338.856 175.462 C 338.036 175.109 337.323 174.629 336.716 174.022 C 336.116 173.422 335.639 172.712 335.286 171.892 C 334.933 171.072 334.756 170.195 334.756 169.262 Z M 341.446 169.262 L 360.216 169.262 L 360.216 147.722 L 341.446 147.722 L 341.446 169.262 ZM 377.444 170.662 L 400.134 170.662 L 400.134 162.212 L 384.174 162.212 C 383.241 162.212 382.364 162.035 381.544 161.682 C 380.724 161.329 380.011 160.852 379.404 160.252 C 378.804 159.645 378.327 158.932 377.974 158.112 C 377.621 157.292 377.444 156.415 377.444 155.482 L 377.444 147.722 C 377.444 146.789 377.621 145.912 377.974 145.092 C 378.327 144.272 378.804 143.559 379.404 142.952 C 380.011 142.352 380.724 141.875 381.544 141.522 C 382.364 141.169 383.241 140.992 384.174 140.992 L 405.474 140.992 L 405.474 147.722 L 384.174 147.722 L 384.174 155.482 L 400.134 155.482 C 401.067 155.482 401.941 155.659 402.754 156.012 C 403.561 156.365 404.271 156.845 404.884 157.452 C 405.504 158.052 405.991 158.762 406.344 159.582 C 406.697 160.402 406.874 161.279 406.874 162.212 L 406.874 170.662 C 406.874 171.595 406.697 172.472 406.344 173.292 C 405.991 174.112 405.504 174.822 404.884 175.422 C 404.271 176.029 403.561 176.509 402.754 176.862 C 401.941 177.215 401.067 177.392 400.134 177.392 L 377.444 177.392 L 377.444 170.662 Z" transform="matrix(1, 0, 0, 1, 0, 0)" style="fill: rgb(139, 139, 139); white-space: pre;"/>
  <path d="M 438.365 213.523 L 433.795 213.523 L 433.795 203.823 L 438.145 203.823 L 438.145 204.903 L 435.055 204.903 L 435.055 207.913 L 437.855 207.913 L 437.855 208.963 L 435.055 208.963 L 435.055 212.443 L 438.365 212.443 L 438.365 213.523 ZM 438.987 213.523 L 438.987 206.383 C 439.334 206.283 439.707 206.196 440.107 206.123 C 440.507 206.056 440.877 206.023 441.217 206.023 C 441.577 206.023 441.907 206.07 442.207 206.163 C 442.507 206.263 442.764 206.43 442.977 206.663 C 443.184 206.896 443.347 207.21 443.467 207.603 C 443.58 208.003 443.637 208.496 443.637 209.083 L 443.637 213.523 L 442.437 213.523 L 442.437 209.183 C 442.437 208.456 442.344 207.923 442.157 207.583 C 441.97 207.25 441.62 207.083 441.107 207.083 C 440.834 207.083 440.53 207.13 440.197 207.223 L 440.197 213.523 L 438.987 213.523 ZM 445.753 203.993 L 445.753 206.173 L 447.603 206.173 L 447.603 207.213 L 445.753 207.213 L 445.753 211.253 C 445.753 211.76 445.843 212.113 446.023 212.313 C 446.21 212.513 446.456 212.613 446.763 212.613 C 446.923 212.613 447.076 212.59 447.223 212.543 C 447.363 212.496 447.486 212.44 447.593 212.373 L 447.823 213.343 C 447.443 213.563 447.04 213.673 446.613 213.673 C 445.92 213.673 445.403 213.48 445.063 213.093 C 444.723 212.706 444.553 212.066 444.553 211.173 L 444.553 204.203 L 445.753 203.993 ZM 449.236 206.173 L 449.236 213.523 L 448.026 213.523 L 448.026 206.173 L 449.236 206.173 Z M 448.626 204.873 C 448.413 204.873 448.229 204.8 448.076 204.653 C 447.923 204.506 447.846 204.313 447.846 204.073 C 447.846 203.833 447.923 203.64 448.076 203.493 C 448.229 203.346 448.413 203.273 448.626 203.273 C 448.846 203.273 449.033 203.346 449.186 203.493 C 449.339 203.64 449.416 203.833 449.416 204.073 C 449.416 204.313 449.339 204.506 449.186 204.653 C 449.033 204.8 448.846 204.873 448.626 204.873 ZM 451.433 203.993 L 451.433 206.173 L 453.283 206.173 L 453.283 207.213 L 451.433 207.213 L 451.433 211.253 C 451.433 211.76 451.523 212.113 451.703 212.313 C 451.89 212.513 452.136 212.613 452.443 212.613 C 452.603 212.613 452.756 212.59 452.903 212.543 C 453.043 212.496 453.166 212.44 453.273 212.373 L 453.503 213.343 C 453.123 213.563 452.72 213.673 452.293 213.673 C 451.6 213.673 451.083 213.48 450.743 213.093 C 450.403 212.706 450.233 212.066 450.233 211.173 L 450.233 204.203 L 451.433 203.993 ZM 455.406 211.993 C 455.672 211.06 455.919 210.123 456.146 209.183 C 456.366 208.243 456.579 207.24 456.786 206.173 L 457.976 206.173 C 457.836 206.853 457.686 207.526 457.526 208.193 C 457.359 208.853 457.189 209.49 457.016 210.103 C 456.842 210.723 456.672 211.306 456.506 211.853 C 456.332 212.4 456.169 212.896 456.016 213.343 C 455.842 213.863 455.672 214.303 455.506 214.663 C 455.346 215.023 455.169 215.313 454.976 215.533 C 454.782 215.753 454.576 215.91 454.356 216.003 C 454.129 216.103 453.862 216.153 453.556 216.153 C 453.389 216.153 453.219 216.133 453.046 216.093 C 452.879 216.053 452.739 216.01 452.626 215.963 L 452.856 214.983 C 453.096 215.083 453.322 215.133 453.536 215.133 C 453.809 215.133 454.029 215.036 454.196 214.843 C 454.362 214.643 454.526 214.346 454.686 213.953 L 454.826 213.603 C 454.652 213.123 454.472 212.586 454.286 211.993 C 454.106 211.4 453.929 210.78 453.756 210.133 C 453.582 209.493 453.416 208.833 453.256 208.153 C 453.102 207.48 452.959 206.82 452.826 206.173 L 454.096 206.173 C 454.176 206.613 454.266 207.093 454.366 207.613 C 454.466 208.14 454.576 208.663 454.696 209.183 C 454.809 209.703 454.929 210.21 455.056 210.703 C 455.176 211.19 455.292 211.62 455.406 211.993 Z" transform="matrix(0.6920080184936523, -0.7218899726867676, 0.7218899726867676, 0.6920080184936523, -121.99149322509766, 384.0950622558594)" style="fill: rgb(51, 51, 51); white-space: pre;"/>
  <path d="M 435.815 231.933 C 434.675 231.933 433.802 231.51 433.195 230.663 C 432.588 229.81 432.285 228.496 432.285 226.723 C 432.285 225.816 432.372 225.053 432.545 224.433 C 432.718 223.806 432.958 223.296 433.265 222.903 C 433.572 222.51 433.935 222.226 434.355 222.053 C 434.775 221.88 435.232 221.793 435.725 221.793 C 436.138 221.793 436.522 221.846 436.875 221.953 C 437.228 222.066 437.518 222.2 437.745 222.353 L 437.365 223.403 C 437.145 223.256 436.905 223.136 436.645 223.043 C 436.392 222.95 436.095 222.903 435.755 222.903 C 435.008 222.903 434.468 223.213 434.135 223.833 C 433.795 224.453 433.625 225.416 433.625 226.723 C 433.625 228.043 433.805 229.056 434.165 229.763 C 434.518 230.47 435.095 230.823 435.895 230.823 C 436.282 230.823 436.592 230.776 436.825 230.683 C 437.065 230.59 437.298 230.47 437.525 230.323 L 437.875 231.313 C 437.655 231.486 437.372 231.633 437.025 231.753 C 436.672 231.873 436.268 231.933 435.815 231.933 ZM 442.663 228.053 C 442.663 228.633 442.613 229.16 442.513 229.633 C 442.406 230.1 442.25 230.503 442.043 230.843 C 441.83 231.176 441.563 231.436 441.243 231.623 C 440.923 231.81 440.543 231.903 440.103 231.903 C 439.663 231.903 439.28 231.81 438.953 231.623 C 438.626 231.436 438.356 231.176 438.143 230.843 C 437.936 230.503 437.783 230.1 437.683 229.633 C 437.576 229.16 437.523 228.633 437.523 228.053 C 437.523 227.486 437.576 226.963 437.683 226.483 C 437.783 226.01 437.936 225.603 438.143 225.263 C 438.356 224.923 438.626 224.66 438.953 224.473 C 439.28 224.286 439.663 224.193 440.103 224.193 C 440.543 224.193 440.923 224.286 441.243 224.473 C 441.563 224.66 441.83 224.923 442.043 225.263 C 442.25 225.603 442.406 226.01 442.513 226.483 C 442.613 226.963 442.663 227.486 442.663 228.053 Z M 441.403 228.053 C 441.403 227.646 441.38 227.273 441.333 226.933 C 441.286 226.586 441.213 226.29 441.113 226.043 C 441.006 225.796 440.87 225.606 440.703 225.473 C 440.536 225.34 440.336 225.273 440.103 225.273 C 439.856 225.273 439.653 225.34 439.493 225.473 C 439.326 225.606 439.19 225.796 439.083 226.043 C 438.976 226.29 438.9 226.586 438.853 226.933 C 438.806 227.273 438.783 227.646 438.783 228.053 C 438.783 228.466 438.806 228.843 438.853 229.183 C 438.9 229.523 438.976 229.813 439.083 230.053 C 439.19 230.3 439.326 230.49 439.493 230.623 C 439.653 230.756 439.856 230.823 440.103 230.823 C 440.336 230.823 440.536 230.756 440.703 230.623 C 440.87 230.49 441.006 230.3 441.113 230.053 C 441.213 229.813 441.286 229.523 441.333 229.183 C 441.38 228.843 441.403 228.466 441.403 228.053 ZM 443.323 231.723 L 443.323 224.583 C 443.65 224.483 444.007 224.396 444.393 224.323 C 444.773 224.256 445.123 224.223 445.443 224.223 C 445.77 224.223 446.063 224.263 446.323 224.343 C 446.59 224.43 446.827 224.57 447.033 224.763 C 447.28 224.603 447.543 224.473 447.823 224.373 C 448.103 224.273 448.41 224.223 448.743 224.223 C 449.077 224.223 449.383 224.27 449.663 224.363 C 449.937 224.463 450.17 224.63 450.363 224.863 C 450.563 225.096 450.72 225.41 450.833 225.803 C 450.94 226.203 450.993 226.696 450.993 227.283 L 450.993 231.723 L 449.793 231.723 L 449.793 227.383 C 449.793 226.656 449.71 226.123 449.543 225.783 C 449.377 225.45 449.06 225.283 448.593 225.283 C 448.413 225.283 448.233 225.316 448.053 225.383 C 447.867 225.45 447.697 225.536 447.543 225.643 C 447.617 225.863 447.67 226.106 447.703 226.373 C 447.743 226.646 447.763 226.95 447.763 227.283 L 447.763 231.723 L 446.563 231.723 L 446.563 227.383 C 446.563 226.656 446.477 226.123 446.303 225.783 C 446.137 225.45 445.82 225.283 445.353 225.283 C 445.113 225.283 444.84 225.33 444.533 225.423 L 444.533 231.723 L 443.323 231.723 ZM 453.182 225.353 L 453.182 230.613 C 453.456 230.766 453.746 230.843 454.052 230.843 C 454.286 230.843 454.492 230.796 454.672 230.703 C 454.846 230.61 454.996 230.456 455.122 230.243 C 455.249 230.023 455.346 229.736 455.412 229.383 C 455.479 229.03 455.512 228.593 455.512 228.073 C 455.512 227.06 455.382 226.336 455.122 225.903 C 454.869 225.47 454.462 225.253 453.902 225.253 C 453.796 225.253 453.682 225.26 453.562 225.273 C 453.442 225.286 453.316 225.313 453.182 225.353 Z M 453.182 231.663 L 453.182 234.313 L 451.982 234.313 L 451.982 224.573 C 452.242 224.46 452.539 224.366 452.872 224.293 C 453.199 224.226 453.536 224.193 453.882 224.193 C 454.396 224.193 454.836 224.28 455.202 224.453 C 455.576 224.633 455.876 224.89 456.102 225.223 C 456.329 225.55 456.499 225.953 456.612 226.433 C 456.719 226.92 456.772 227.47 456.772 228.083 C 456.772 229.323 456.572 230.27 456.172 230.923 C 455.779 231.576 455.132 231.903 454.232 231.903 C 454.019 231.903 453.829 231.883 453.662 231.843 C 453.496 231.803 453.336 231.743 453.182 231.663 ZM 462.149 228.053 C 462.149 228.633 462.099 229.16 461.999 229.633 C 461.892 230.1 461.735 230.503 461.529 230.843 C 461.315 231.176 461.049 231.436 460.729 231.623 C 460.409 231.81 460.029 231.903 459.589 231.903 C 459.149 231.903 458.765 231.81 458.439 231.623 C 458.112 231.436 457.842 231.176 457.629 230.843 C 457.422 230.503 457.269 230.1 457.169 229.633 C 457.062 229.16 457.009 228.633 457.009 228.053 C 457.009 227.486 457.062 226.963 457.169 226.483 C 457.269 226.01 457.422 225.603 457.629 225.263 C 457.842 224.923 458.112 224.66 458.439 224.473 C 458.765 224.286 459.149 224.193 459.589 224.193 C 460.029 224.193 460.409 224.286 460.729 224.473 C 461.049 224.66 461.315 224.923 461.529 225.263 C 461.735 225.603 461.892 226.01 461.999 226.483 C 462.099 226.963 462.149 227.486 462.149 228.053 Z M 460.889 228.053 C 460.889 227.646 460.865 227.273 460.819 226.933 C 460.772 226.586 460.699 226.29 460.599 226.043 C 460.492 225.796 460.355 225.606 460.189 225.473 C 460.022 225.34 459.822 225.273 459.589 225.273 C 459.342 225.273 459.139 225.34 458.979 225.473 C 458.812 225.606 458.675 225.796 458.569 226.043 C 458.462 226.29 458.385 226.586 458.339 226.933 C 458.292 227.273 458.269 227.646 458.269 228.053 C 458.269 228.466 458.292 228.843 458.339 229.183 C 458.385 229.523 458.462 229.813 458.569 230.053 C 458.675 230.3 458.812 230.49 458.979 230.623 C 459.139 230.756 459.342 230.823 459.589 230.823 C 459.822 230.823 460.022 230.756 460.189 230.623 C 460.355 230.49 460.492 230.3 460.599 230.053 C 460.699 229.813 460.772 229.523 460.819 229.183 C 460.865 228.843 460.889 228.466 460.889 228.053 ZM 462.809 231.723 L 462.809 224.583 C 463.155 224.483 463.529 224.396 463.929 224.323 C 464.329 224.256 464.699 224.223 465.039 224.223 C 465.399 224.223 465.729 224.27 466.029 224.363 C 466.329 224.463 466.585 224.63 466.799 224.863 C 467.005 225.096 467.169 225.41 467.289 225.803 C 467.402 226.203 467.459 226.696 467.459 227.283 L 467.459 231.723 L 466.259 231.723 L 466.259 227.383 C 466.259 226.656 466.165 226.123 465.979 225.783 C 465.792 225.45 465.442 225.283 464.929 225.283 C 464.655 225.283 464.352 225.33 464.019 225.423 L 464.019 231.723 L 462.809 231.723 ZM 472.765 228.403 L 469.285 228.403 C 469.291 228.756 469.325 229.08 469.385 229.373 C 469.438 229.673 469.528 229.933 469.655 230.153 C 469.781 230.366 469.948 230.536 470.155 230.663 C 470.368 230.783 470.638 230.843 470.965 230.843 C 471.231 230.843 471.481 230.803 471.715 230.723 C 471.941 230.643 472.105 230.576 472.205 230.523 L 472.435 231.483 C 472.315 231.57 472.111 231.663 471.825 231.763 C 471.538 231.856 471.198 231.903 470.805 231.903 C 470.291 231.903 469.861 231.81 469.515 231.623 C 469.161 231.436 468.875 231.176 468.655 230.843 C 468.441 230.503 468.288 230.1 468.195 229.633 C 468.101 229.166 468.055 228.653 468.055 228.093 C 468.055 226.74 468.278 225.753 468.725 225.133 C 469.171 224.506 469.765 224.193 470.505 224.193 C 471.331 224.193 471.918 224.506 472.265 225.133 C 472.611 225.753 472.785 226.63 472.785 227.763 C 472.785 227.863 472.785 227.966 472.785 228.073 C 472.785 228.18 472.778 228.29 472.765 228.403 Z M 470.505 225.213 C 470.098 225.213 469.805 225.413 469.625 225.813 C 469.445 226.213 469.335 226.75 469.295 227.423 L 471.525 227.423 C 471.525 226.743 471.455 226.203 471.315 225.803 C 471.175 225.41 470.905 225.213 470.505 225.213 ZM 473.457 231.723 L 473.457 224.583 C 473.804 224.483 474.177 224.396 474.577 224.323 C 474.977 224.256 475.347 224.223 475.687 224.223 C 476.047 224.223 476.377 224.27 476.677 224.363 C 476.977 224.463 477.234 224.63 477.447 224.863 C 477.654 225.096 477.817 225.41 477.937 225.803 C 478.05 226.203 478.107 226.696 478.107 227.283 L 478.107 231.723 L 476.907 231.723 L 476.907 227.383 C 476.907 226.656 476.814 226.123 476.627 225.783 C 476.44 225.45 476.09 225.283 475.577 225.283 C 475.304 225.283 475 225.33 474.667 225.423 L 474.667 231.723 L 473.457 231.723 ZM 480.223 222.193 L 480.223 224.373 L 482.073 224.373 L 482.073 225.413 L 480.223 225.413 L 480.223 229.453 C 480.223 229.96 480.313 230.313 480.493 230.513 C 480.68 230.713 480.926 230.813 481.233 230.813 C 481.393 230.813 481.546 230.79 481.693 230.743 C 481.833 230.696 481.956 230.64 482.063 230.573 L 482.293 231.543 C 481.913 231.763 481.51 231.873 481.083 231.873 C 480.39 231.873 479.873 231.68 479.533 231.293 C 479.193 230.906 479.023 230.266 479.023 229.373 L 479.023 222.403 L 480.223 222.193 Z" transform="matrix(0.6920080184936523, -0.7218899726867676, 0.7218899726867676, 0.6920080184936523, -121.99149322509766, 384.0950622558594)" style="fill: rgb(51, 51, 51); white-space: pre;"/>
  <path d="M 433.895 249.053 C 434.402 249.053 434.792 248.913 435.065 248.633 C 435.338 248.353 435.475 247.976 435.475 247.503 C 435.475 247.25 435.435 247.026 435.355 246.833 C 435.268 246.633 435.158 246.453 435.025 246.293 C 434.885 246.14 434.728 245.996 434.555 245.863 C 434.375 245.73 434.192 245.6 434.005 245.473 C 433.792 245.32 433.568 245.16 433.335 244.993 C 433.102 244.826 432.888 244.63 432.695 244.403 C 432.508 244.183 432.352 243.923 432.225 243.623 C 432.105 243.323 432.045 242.973 432.045 242.573 C 432.045 242.18 432.112 241.826 432.245 241.513 C 432.385 241.193 432.572 240.92 432.805 240.693 C 433.045 240.473 433.332 240.303 433.665 240.183 C 433.998 240.056 434.355 239.993 434.735 239.993 C 435.108 239.993 435.455 240.04 435.775 240.133 C 436.088 240.226 436.352 240.34 436.565 240.473 L 436.175 241.463 C 435.982 241.336 435.772 241.236 435.545 241.163 C 435.312 241.096 435.068 241.063 434.815 241.063 C 434.362 241.063 433.998 241.186 433.725 241.433 C 433.445 241.68 433.305 242.04 433.305 242.513 C 433.305 242.78 433.352 243.01 433.445 243.203 C 433.532 243.396 433.645 243.573 433.785 243.733 C 433.932 243.893 434.102 244.04 434.295 244.173 C 434.488 244.3 434.692 244.433 434.905 244.573 C 435.118 244.713 435.338 244.866 435.565 245.033 C 435.785 245.206 435.988 245.403 436.175 245.623 C 436.355 245.836 436.502 246.09 436.615 246.383 C 436.735 246.683 436.795 247.033 436.795 247.433 C 436.795 247.793 436.738 248.136 436.625 248.463 C 436.512 248.79 436.335 249.08 436.095 249.333 C 435.862 249.58 435.565 249.773 435.205 249.913 C 434.845 250.06 434.422 250.133 433.935 250.133 C 433.488 250.133 433.098 250.083 432.765 249.983 C 432.425 249.876 432.125 249.74 431.865 249.573 L 432.255 248.563 C 432.502 248.716 432.752 248.836 433.005 248.923 C 433.265 249.01 433.562 249.053 433.895 249.053 ZM 438.803 248.393 C 439.07 247.46 439.317 246.523 439.543 245.583 C 439.763 244.643 439.977 243.64 440.183 242.573 L 441.373 242.573 C 441.233 243.253 441.083 243.926 440.923 244.593 C 440.757 245.253 440.587 245.89 440.413 246.503 C 440.24 247.123 440.07 247.706 439.903 248.253 C 439.73 248.8 439.567 249.296 439.413 249.743 C 439.24 250.263 439.07 250.703 438.903 251.063 C 438.743 251.423 438.567 251.713 438.373 251.933 C 438.18 252.153 437.973 252.31 437.753 252.403 C 437.527 252.503 437.26 252.553 436.953 252.553 C 436.787 252.553 436.617 252.533 436.443 252.493 C 436.277 252.453 436.137 252.41 436.023 252.363 L 436.253 251.383 C 436.493 251.483 436.72 251.533 436.933 251.533 C 437.207 251.533 437.427 251.436 437.593 251.243 C 437.76 251.043 437.923 250.746 438.083 250.353 L 438.223 250.003 C 438.05 249.523 437.87 248.986 437.683 248.393 C 437.503 247.8 437.327 247.18 437.153 246.533 C 436.98 245.893 436.813 245.233 436.653 244.553 C 436.5 243.88 436.357 243.22 436.223 242.573 L 437.493 242.573 C 437.573 243.013 437.663 243.493 437.763 244.013 C 437.863 244.54 437.973 245.063 438.093 245.583 C 438.207 246.103 438.327 246.61 438.453 247.103 C 438.573 247.59 438.69 248.02 438.803 248.393 ZM 442.566 249.073 C 442.926 249.073 443.196 248.97 443.376 248.763 C 443.556 248.563 443.646 248.3 443.646 247.973 C 443.646 247.773 443.609 247.6 443.536 247.453 C 443.462 247.306 443.366 247.176 443.246 247.063 C 443.119 246.956 442.979 246.856 442.826 246.763 C 442.666 246.676 442.506 246.583 442.346 246.483 C 442.186 246.39 442.032 246.28 441.886 246.153 C 441.732 246.026 441.599 245.88 441.486 245.713 C 441.366 245.553 441.272 245.366 441.206 245.153 C 441.132 244.946 441.096 244.703 441.096 244.423 C 441.096 243.816 441.286 243.326 441.666 242.953 C 442.046 242.58 442.556 242.393 443.196 242.393 C 443.469 242.393 443.726 242.426 443.966 242.493 C 444.212 242.566 444.416 242.643 444.576 242.723 L 444.306 243.693 C 444.139 243.6 443.972 243.53 443.806 243.483 C 443.632 243.436 443.449 243.413 443.256 243.413 C 442.956 243.413 442.719 243.5 442.546 243.673 C 442.366 243.846 442.276 244.096 442.276 244.423 C 442.276 244.61 442.309 244.77 442.376 244.903 C 442.442 245.036 442.529 245.156 442.636 245.263 C 442.742 245.376 442.862 245.48 442.996 245.573 C 443.129 245.666 443.272 245.753 443.426 245.833 C 443.599 245.94 443.772 246.053 443.946 246.173 C 444.119 246.293 444.276 246.433 444.416 246.593 C 444.549 246.76 444.656 246.953 444.736 247.173 C 444.822 247.393 444.866 247.656 444.866 247.963 C 444.866 248.61 444.676 249.126 444.296 249.513 C 443.922 249.906 443.369 250.103 442.636 250.103 C 442.262 250.103 441.929 250.053 441.636 249.953 C 441.336 249.846 441.109 249.753 440.956 249.673 L 441.216 248.673 C 441.356 248.753 441.542 248.84 441.776 248.933 C 442.016 249.026 442.279 249.073 442.566 249.073 ZM 446.338 240.393 L 446.338 242.573 L 448.188 242.573 L 448.188 243.613 L 446.338 243.613 L 446.338 247.653 C 446.338 248.16 446.428 248.513 446.608 248.713 C 446.795 248.913 447.042 249.013 447.348 249.013 C 447.508 249.013 447.662 248.99 447.808 248.943 C 447.948 248.896 448.072 248.84 448.178 248.773 L 448.408 249.743 C 448.028 249.963 447.625 250.073 447.198 250.073 C 446.505 250.073 445.988 249.88 445.648 249.493 C 445.308 249.106 445.138 248.466 445.138 247.573 L 445.138 240.603 L 446.338 240.393 ZM 452.851 246.603 L 449.371 246.603 C 449.378 246.956 449.411 247.28 449.471 247.573 C 449.524 247.873 449.614 248.133 449.741 248.353 C 449.868 248.566 450.034 248.736 450.241 248.863 C 450.454 248.983 450.724 249.043 451.051 249.043 C 451.318 249.043 451.568 249.003 451.801 248.923 C 452.028 248.843 452.191 248.776 452.291 248.723 L 452.521 249.683 C 452.401 249.77 452.198 249.863 451.911 249.963 C 451.624 250.056 451.284 250.103 450.891 250.103 C 450.378 250.103 449.948 250.01 449.601 249.823 C 449.248 249.636 448.961 249.376 448.741 249.043 C 448.528 248.703 448.374 248.3 448.281 247.833 C 448.188 247.366 448.141 246.853 448.141 246.293 C 448.141 244.94 448.364 243.953 448.811 243.333 C 449.258 242.706 449.851 242.393 450.591 242.393 C 451.418 242.393 452.004 242.706 452.351 243.333 C 452.698 243.953 452.871 244.83 452.871 245.963 C 452.871 246.063 452.871 246.166 452.871 246.273 C 452.871 246.38 452.864 246.49 452.851 246.603 Z M 450.591 243.413 C 450.184 243.413 449.891 243.613 449.711 244.013 C 449.531 244.413 449.421 244.95 449.381 245.623 L 451.611 245.623 C 451.611 244.943 451.541 244.403 451.401 244.003 C 451.261 243.61 450.991 243.413 450.591 243.413 ZM 453.543 249.923 L 453.543 242.783 C 453.87 242.683 454.227 242.596 454.613 242.523 C 454.993 242.456 455.343 242.423 455.663 242.423 C 455.99 242.423 456.283 242.463 456.543 242.543 C 456.81 242.63 457.047 242.77 457.253 242.963 C 457.5 242.803 457.763 242.673 458.043 242.573 C 458.323 242.473 458.63 242.423 458.963 242.423 C 459.297 242.423 459.603 242.47 459.883 242.563 C 460.157 242.663 460.39 242.83 460.583 243.063 C 460.783 243.296 460.94 243.61 461.053 244.003 C 461.16 244.403 461.213 244.896 461.213 245.483 L 461.213 249.923 L 460.013 249.923 L 460.013 245.583 C 460.013 244.856 459.93 244.323 459.763 243.983 C 459.597 243.65 459.28 243.483 458.813 243.483 C 458.633 243.483 458.453 243.516 458.273 243.583 C 458.087 243.65 457.917 243.736 457.763 243.843 C 457.837 244.063 457.89 244.306 457.923 244.573 C 457.963 244.846 457.983 245.15 457.983 245.483 L 457.983 249.923 L 456.783 249.923 L 456.783 245.583 C 456.783 244.856 456.697 244.323 456.523 243.983 C 456.357 243.65 456.04 243.483 455.573 243.483 C 455.333 243.483 455.06 243.53 454.753 243.623 L 454.753 249.923 L 453.543 249.923 Z" transform="matrix(0.6920080184936523, -0.7218899726867676, 0.7218899726867676, 0.6920080184936523, -121.99149322509766, 384.0950622558594)" style="fill: rgb(51, 51, 51); white-space: pre;"/>
  <g transform="matrix(0.358292, 0, 0, 0.358292, 165.291153, 178.325455)">
    <g id="Layer_1" transform="matrix(-0.919802, 0, 0, -1.000001, 595.161194, 281.368408)">
      <g clip-rule="evenodd" fill-rule="evenodd">
        <linearGradient id="XMLID_1_" y2="201.56" gradientUnits="userSpaceOnUse" y1="201.56" x2="409.83" x1="154.97">
          <stop style="stop-color:#F8130D" offset="0"/>
          <stop style="stop-color:#EA142D" offset="0"/>
          <stop style="stop-color:#C71781" offset="0"/>
          <stop style="stop-color:#CE2E8D" offset="0.0928"/>
          <stop style="stop-color:#D84B9C" offset="0.2348"/>
          <stop style="stop-color:#DF61A7" offset="0.387"/>
          <stop style="stop-color:#E471B0" offset="0.5523"/>
          <stop style="stop-color:#E77AB4" offset="0.7403"/>
          <stop style="stop-color:#E87DB6" offset="1"/>
          <stop style="stop-color:#C485B8" offset="1"/>
          <stop style="stop-color:#A08DBB" offset="1"/>
          <stop style="stop-color:#8094BD" offset="1"/>
          <stop style="stop-color:#649ABF" offset="1"/>
          <stop style="stop-color:#4E9FC0" offset="1"/>
          <stop style="stop-color:#3DA2C2" offset="1"/>
          <stop style="stop-color:#32A5C2" offset="1"/>
          <stop style="stop-color:#2BA7C3" offset="1"/>
          <stop style="stop-color:#29A7C3" offset="1"/>
        </linearGradient>
        <path d="m154.97 172.45c28.004-26.356 65.933-41.144 105.57-41.144 82.436 0 149.29 62.861 149.29 140.51h-17.618c0-68.429-58.966-123.93-131.67-123.93-34.907 0-68.432 13.056-93.084 36.318l-12.49-11.76z" fill="url(#XMLID_1_)"/>
        <linearGradient id="XMLID_2_" y2="188.41" gradientUnits="userSpaceOnUse" y1="188.41" x2="437.71" x1="135.25">
          <stop style="stop-color:#F8130D" offset="0"/>
          <stop style="stop-color:#6E5B6C" offset="0"/>
          <stop style="stop-color:#1987A6" offset="0"/>
          <stop style="stop-color:#1B8BAA" offset="0.0496"/>
          <stop style="stop-color:#239BB8" offset="0.3054"/>
          <stop style="stop-color:#28A4C0" offset="0.5969"/>
          <stop style="stop-color:#29A7C3" offset="1"/>
          <stop style="stop-color:#2AA7C1" offset="1"/>
          <stop style="stop-color:#2DA8BA" offset="1"/>
          <stop style="stop-color:#32AAAF" offset="1"/>
          <stop style="stop-color:#39AC9E" offset="1"/>
          <stop style="stop-color:#42AE88" offset="1"/>
          <stop style="stop-color:#4DB26C" offset="1"/>
          <stop style="stop-color:#5AB64C" offset="1"/>
          <stop style="stop-color:#6ABA28" offset="1"/>
          <stop style="stop-color:#6CBB22" offset="1"/>
        </linearGradient>
        <path d="m135.25 153.89c33.264-31.306 78.295-48.877 125.3-48.877 97.883 0 177.16 74.677 177.16 166.8h-17.618c0-82.906-71.456-150.16-159.54-150.16-42.334 0-82.894 15.777-112.81 43.989l-12.49-11.75z" fill="url(#XMLID_2_)"/>
        <linearGradient id="XMLID_3_" y2="175.3" gradientUnits="userSpaceOnUse" y1="175.3" x2="465.64" x1="115.53">
          <stop style="stop-color:#F8130D" offset="0"/>
          <stop style="stop-color:#695425" offset="0"/>
          <stop style="stop-color:#147A33" offset="0"/>
          <stop style="stop-color:#1D8131" offset="0.0405"/>
          <stop style="stop-color:#3A962C" offset="0.1907"/>
          <stop style="stop-color:#50A627" offset="0.3517"/>
          <stop style="stop-color:#60B224" offset="0.5265"/>
          <stop style="stop-color:#69B923" offset="0.7253"/>
          <stop style="stop-color:#6CBB22" offset="1"/>
          <stop style="stop-color:#80C434" offset="1"/>
          <stop style="stop-color:#9FD251" offset="1"/>
          <stop style="stop-color:#BBDE69" offset="1"/>
          <stop style="stop-color:#D1E77D" offset="1"/>
          <stop style="stop-color:#E2EF8C" offset="1"/>
          <stop style="stop-color:#EDF497" offset="1"/>
          <stop style="stop-color:#F4F79D" offset="1"/>
          <stop style="stop-color:#F6F89F" offset="1"/>
        </linearGradient>
        <path d="m115.53 135.33c38.456-36.194 90.585-56.55 145.02-56.55 113.27 0 205.1 86.433 205.1 193.04h-17.683c0-97.446-83.947-176.39-187.42-176.39-49.762 0-97.356 18.562-132.52 51.662l-12.5-11.76z" fill="url(#XMLID_3_)"/>
        <linearGradient id="XMLID_4_" y2="162.18" gradientUnits="userSpaceOnUse" y1="162.18" x2="493.52" x1="95.805">
          <stop style="stop-color:#F8130D" offset="0"/>
          <stop style="stop-color:#E7860C" offset="0"/>
          <stop style="stop-color:#DBDB0C" offset="0"/>
          <stop style="stop-color:#E1E12D" offset="0.0914"/>
          <stop style="stop-color:#E7E850" offset="0.2088"/>
          <stop style="stop-color:#EDEE6D" offset="0.3336"/>
          <stop style="stop-color:#F1F283" offset="0.4662"/>
          <stop style="stop-color:#F4F693" offset="0.6102"/>
          <stop style="stop-color:#F5F79C" offset="0.7739"/>
          <stop style="stop-color:#F6F89F" offset="1"/>
          <stop style="stop-color:#F6F69E" offset="1"/>
          <stop style="stop-color:#F6EF9C" offset="1"/>
          <stop style="stop-color:#F6E499" offset="1"/>
          <stop style="stop-color:#F6D393" offset="1"/>
          <stop style="stop-color:#F7BD8C" offset="1"/>
          <stop style="stop-color:#F7A284" offset="1"/>
          <stop style="stop-color:#F79680" offset="1"/>
        </linearGradient>
        <path d="m95.805 116.77c43.714-41.144 102.94-64.221 164.74-64.221 128.65 0 232.97 98.188 232.97 219.27h-17.683c0-111.92-96.371-202.69-215.29-202.69-57.126 0-111.88 21.345-152.25 59.396l-12.485-11.76z" fill="url(#XMLID_4_)"/>
        <linearGradient id="XMLID_5_" y2="149.06" gradientUnits="userSpaceOnUse" y1="149.06" x2="521.39" x1="76.084">
          <stop style="stop-color:#F8130D" offset="0"/>
          <stop style="stop-color:#F64D16" offset="0"/>
          <stop style="stop-color:#F3A122" offset="0"/>
          <stop style="stop-color:#F7D17F" offset="1"/>
          <stop style="stop-color:#F79680" offset="1"/>
        </linearGradient>
        <path d="m76.084 98.206c48.909-46.093 115.24-71.893 184.46-71.893 144.03 0 260.85 109.88 260.85 245.5h-17.618c0-126.4-108.93-228.92-243.23-228.92-64.554 0-126.35 24.129-171.97 67.067l-12.486-11.754z" fill="url(#XMLID_5_)"/>
        <linearGradient id="XMLID_6_" y2="135.92" gradientUnits="userSpaceOnUse" y1="135.92" x2="549.33" x1="56.363">
          <stop style="stop-color:#F8130D" offset="0"/>
          <stop style="stop-color:#FB0F0C" offset="0"/>
          <stop style="stop-color:#F79680" offset="1"/>
          <stop style="stop-color:#F8130D" offset="1"/>
        </linearGradient>
        <path d="m531.64 271.81c0-140.94-121.42-255.15-271.1-255.15-71.917 0-140.81 26.852-191.69 74.739l-12.49-11.755c54.167-50.981 127.6-79.627 204.18-79.627 159.48 0 288.78 121.7 288.78 271.8h-17.68z" stroke="#FF001C" stroke-miterlimit="10" stroke-width=".036" fill="url(#XMLID_6_)"/>
      </g>
    </g>
  </g>
</svg>